<svg width="300" height="300" viewBox="0 0 300 300" fill="none" xmlns="http://www.w3.org/2000/svg">
  <rect width="300" height="300" fill="#f4f4f4"/>
  <g transform="translate(35 118) scale(2.6744)">
    <path d="M70.8879 8.86493C70.4776 8.86493 70.4092 8.7054 70.4092 8.47751C70.4092 7.29248 71.4577 6.56324 72.8025 6.56324H80.256C81.2362 6.56324 81.8516 7.01902 81.8516 7.77105C81.8516 8.43193 81.2362 8.86493 80.256 8.86493H70.8879ZM72.1643 18.2312H84.9515V16.9778C84.9515 15.5421 84.0626 14.6533 82.6266 14.6533H73.0533C71.7996 14.6533 70.4092 13.9013 70.4092 12.7391C70.4092 12.42 70.6827 12.2833 70.8879 12.2833H81.5097C84.2677 12.2833 86 10.802 86 8.45472V6.92786C86 4.51222 84.1081 3.03094 81.5097 3.03094H72.1643C68.4946 3.03094 66.2152 5.19589 66.2152 8.65982V12.4884C66.2152 15.9979 68.7453 18.2312 72.1643 18.2312ZM49.5759 14.0836C48.573 14.0836 47.9348 13.5367 47.9348 12.6707V8.75098C47.9348 7.79384 48.5274 7.17854 49.462 7.17854H57.6676C59.5139 7.17854 60.6764 8.24962 60.6764 9.9588V11.0299C60.6764 12.9214 59.5139 14.0836 57.6676 14.0836H49.5759ZM26.6684 18.2312H34.3271C36.4924 18.2312 37.2902 17.1601 38.088 15.9067C38.1792 15.77 38.3159 15.6788 38.4527 15.6788H38.9086C39.0681 15.6788 39.1137 15.8156 39.0909 15.9523L38.7034 18.2312H42.2364V8.65982C42.2364 5.19589 39.9343 3.03094 36.2873 3.03094H22.8619V4.05644C22.8619 5.49215 23.7737 6.40371 25.2324 6.40371H35.6263C37.1079 6.40371 38.0424 7.0418 38.0424 8.04452C38.0424 8.36357 37.8601 8.54588 37.5637 8.54588H26.6684C23.7509 8.54588 21.8818 9.91322 21.8818 12.1238V14.1748C21.8818 16.6588 23.7509 18.2312 26.6684 18.2312ZM27.6941 14.5394C26.714 14.5394 26.0986 14.0152 26.0986 13.172C26.0986 12.3289 26.714 11.8047 27.6941 11.8047H37.6777C37.9512 11.8047 38.1108 12.0098 38.1108 12.3289C38.1108 13.6962 37.0395 14.5394 35.3072 14.5394H27.6941ZM6.13146 18.2312H14.9981C18.3944 18.2312 20.537 15.7472 20.537 11.8275H16.343C16.343 13.1948 15.3856 14.0836 13.8813 14.0836H7.22555C5.35648 14.0836 4.19401 12.9214 4.19401 11.0527V7.24691C4.19401 5.33263 5.35648 4.1476 7.20276 4.1476H13.8813C15.3856 4.1476 16.343 5.19589 16.343 6.40371H20.537C20.537 2.64353 18.3944 0 14.9981 0H6.04029C2.32494 0 0 2.34727 0 6.03909V12.1693C0 15.8839 2.34773 18.2312 6.13146 18.2312ZM43.7408 23.2904H47.9348L46.8863 15.9523C46.8635 15.77 46.9547 15.6788 47.0914 15.6788H47.5701C47.7069 15.6788 47.7525 15.7928 47.8436 15.9523C48.6414 17.2057 49.6443 18.2312 51.8097 18.2312H58.7845C62.4999 18.2312 64.8248 16.0207 64.8248 12.4884V8.65982C64.8248 5.19589 62.4999 3.03094 58.7845 3.03094H51.8097C49.6443 3.03094 48.6414 4.17039 47.8436 5.42378C47.7752 5.51494 47.6613 5.58331 47.5245 5.58331H47.0686C46.9775 5.58331 46.8407 5.51494 46.8863 5.30984L47.2738 3.03094H43.7408V23.2904Z" fill="#000000"/>
  </g>
</svg>
