<svg xmlns="http://www.w3.org/2000/svg" width="36" height="36" fill="none" viewBox="0 0 36 36">
  <path fill="#6D4AFF" d="M23.295 3.006 27.402.368c1.424-.915 3.314-.032 3.53 1.645l.994 7.742-8.633-6.75h.002Zm-11.15 0L8.038.368C6.614-.547 4.724.336 4.508 2.013l-.994 7.742 8.633-6.75h-.002Z"/>
  <path fill="#4A2DC5" d="m6.904 3.479 1.994 1.282-3.252 2.185.394-3.066a.562.562 0 0 1 .862-.401h.002Zm21.326 0-1.995 1.282 3.252 2.185-.394-3.066a.562.562 0 0 0-.862-.401h-.002Z"/>
  <path fill="#4129A3" d="M28.644 24.846H6.489v5.799h22.155v-5.8Z"/>
  <path fill="#FC8F00" d="M18.14 36a3.708 3.708 0 1 0 0-7.416 3.708 3.708 0 0 0 0 7.416Z"/>
  <path fill="#FC8F00" d="M16.76 35.998h1.42v-7.414h-1.42v7.414Z"/>
  <path fill="#FFAC2E" d="M16.759 36a3.708 3.708 0 1 0 0-7.416 3.708 3.708 0 0 0 0 7.416Z"/>
  <path fill="#372580" d="M16.759 32.902a1.153 1.153 0 1 0 0-2.307 1.153 1.153 0 0 0 0 2.307Z"/>
  <path stroke="#372580" stroke-linecap="round" stroke-miterlimit="10" stroke-width="1.072" d="M16.759 33.553V31.75"/>
  <path fill="#6D4AFF" d="M34.762 17.868c0 7.9-9.376 10.716-17.197 10.716-6.874 0-17.197-2.816-17.197-10.716 0-7.901 7.7-15.887 17.199-15.887 9.499 0 17.197 7.986 17.197 15.887h-.002Z"/>
  <path fill="#fff" d="M25.997 20.446c2.843-1.227 4.266-4.267 3.178-6.79-1.089-2.525-4.276-3.576-7.12-2.35-2.843 1.226-4.266 4.267-3.178 6.79 1.089 2.524 4.276 3.576 7.12 2.35Zm-12.806-2.352c1.089-2.523-.334-5.564-3.178-6.79-2.843-1.226-6.03-.175-7.12 2.35-1.088 2.523.335 5.563 3.179 6.79 2.843 1.226 6.03.174 7.12-2.35Z"/>
  <path fill="#4129A3" d="M26.124 18.956c1.036 0 1.876-1.369 1.876-3.058 0-1.69-.84-3.058-1.876-3.058-1.037 0-1.877 1.369-1.877 3.058 0 1.689.84 3.058 1.877 3.058Z"/>
  <path fill="#372480" d="M13.358 14.959c-1.562-3.797-7.277-5.248-9.847-1.752-.801 1.11-.996 2.545-.686 3.892-1.092-2.05-.267-4.682 1.7-5.878 3.215-2.1 8.195-.074 8.833 3.74v-.002Zm5.352 0c.638-3.814 5.619-5.839 8.832-3.74 1.968 1.196 2.793 3.83 1.7 5.878.313-1.345.116-2.782-.685-3.892-2.57-3.496-8.285-2.045-9.847 1.752v.002Z"/>
  <path fill="#fff" d="M16.586 20.089a.236.236 0 1 1 0 .473.9.9 0 0 0-.9.9c0 .13-.105.236-.236.236h-.002a.236.236 0 0 1-.236-.236.9.9 0 0 0-.9-.9.236.236 0 0 1 0-.473c.473 0 .89.24 1.136.603a1.372 1.372 0 0 1 1.138-.603Z"/>
  <path fill="#fff" d="M27.267 14.608a.708.708 0 1 0 0-1.416.708.708 0 0 0 0 1.416Z" opacity=".7"/>
  <path fill="#4129A3" d="M9.941 18.956c1.037 0 1.877-1.369 1.877-3.058 0-1.69-.84-3.058-1.877-3.058-1.036 0-1.877 1.369-1.877 3.058 0 1.689.84 3.058 1.877 3.058Z"/>
  <path fill="#fff" d="M11.086 14.608a.708.708 0 1 0 0-1.416.708.708 0 0 0 0 1.416Z" opacity=".7"/>
</svg>
