<svg width="65" height="65" viewBox="0 0 93 93" fill="none" xmlns="http://www.w3.org/2000/svg"><g filter="url(#filter0_d_6557_1573)"><path d="M5.6543 31.2671C5.6543 21.5257 5.6543 16.655 7.4898 12.9082C9.24722 9.3209 12.148 6.42007 15.7354 4.66265C19.4821 2.82715 24.3528 2.82715 34.0943 2.82715H58.7143C68.4558 2.82715 73.3265 2.82715 77.0732 4.66265C80.6606 6.42007 83.5614 9.3209 85.3188 12.9082C87.1543 16.655 87.1543 21.5257 87.1543 31.2671V55.8872C87.1543 65.6286 87.1543 70.4993 85.3188 74.2461C83.5614 77.8334 80.6606 80.7342 77.0732 82.4916C73.3265 84.3271 68.4558 84.3271 58.7143 84.3271H34.0943C24.3528 84.3271 19.4821 84.3271 15.7354 82.4916C12.148 80.7342 9.24722 77.8334 7.4898 74.2461C5.6543 70.4993 5.6543 65.6286 5.6543 55.8872V31.2671Z" fill="#015F47"></path></g><path d="M61.8425 42.8903C62.3902 41.2107 61.1305 39.4946 59.3414 39.4946L40.1173 39.4581C39.9713 39.4581 39.8435 39.5494 39.807 39.6772L32.76 62.4613C32.687 62.7169 32.906 62.9907 33.1981 62.9907L46.4706 63.0455C48.0406 63.0455 49.5012 62.7351 50.8156 62.0961C52.1301 61.4572 53.3168 60.6174 54.3939 59.522C55.471 58.4448 56.3838 57.2034 57.1689 55.7977C57.9539 54.3919 58.5929 52.9131 59.0675 51.3613L61.8608 42.8903H61.8425ZM67.429 51.3248C66.5892 53.9903 65.4208 56.4914 63.9055 58.8282C62.3902 61.1651 60.6741 63.1915 58.7389 64.9259C56.8037 66.6602 54.7225 68.0295 52.5135 69.0153C50.2862 70.0012 48.0589 70.5124 45.8316 70.5124L22.4999 70.4576C22.226 70.4576 21.9887 70.1655 22.0617 69.9282L33.8736 32.1373C33.9101 32.0095 34.0379 31.9182 34.184 31.9182L56.037 31.973H63.3943C68.3966 31.973 71.9749 36.7379 70.5143 41.4481L67.429 51.3431V51.3248Z" fill="white"></path><path d="M28.4697 29.4532L19.7066 20.7448C19.597 20.6536 19.4692 20.6536 19.451 20.6536C19.2867 20.6536 19.1406 20.7996 19.1406 20.9639V59.3025C19.1406 59.4668 19.2867 59.6128 19.451 59.6128C19.5788 59.6128 19.7066 59.5216 19.7431 59.412C19.7431 59.412 19.7431 59.3755 19.7613 59.3573L19.7796 59.266L28.6157 30.2565C28.7253 29.9461 28.7253 29.727 28.4514 29.4532H28.4697Z" fill="white"></path><path d="M23.4682 16.9294L32.6877 26.2584C32.9068 26.4775 33.1259 26.5323 33.4545 26.5323H73.0528C73.3266 26.5323 73.4727 26.1854 73.2171 25.9298L64.0523 16.6555C63.6507 16.2722 63.6142 16.3269 63.1943 16.3269H23.6873C23.523 16.3269 23.377 16.473 23.377 16.6373C23.377 16.6373 23.377 16.7833 23.4865 16.9111L23.4682 16.9294Z" fill="white"></path><defs><filter id="filter0_d_6557_1573" x="-1.43051e-06" y="-7.15256e-07" width="92.8086" height="92.8086" filterUnits="userSpaceOnUse" color-interpolation-filters="sRGB"><feFlood flood-opacity="0" result="BackgroundImageFix"></feFlood><feColorMatrix in="SourceAlpha" type="matrix" values="0 0 0 0 0 0 0 0 0 0 0 0 0 0 0 0 0 0 127 0" result="hardAlpha"></feColorMatrix><feOffset dy="2.82715"></feOffset><feGaussianBlur stdDeviation="2.82715"></feGaussianBlur><feColorMatrix type="matrix" values="0 0 0 0 0 0 0 0 0 0 0 0 0 0 0 0 0 0 0.28 0"></feColorMatrix><feBlend mode="normal" in2="BackgroundImageFix" result="effect1_dropShadow_6557_1573"></feBlend><feBlend mode="normal" in="SourceGraphic" in2="effect1_dropShadow_6557_1573" result="shape"></feBlend></filter></defs></svg>
