<svg viewBox="0 0 22 22" fill="currentcolor">
    <path d="M12.108 5.724a12.13 12.13 0 0 1-3.746.165 5.406 5.406 0 0 0-1.803 4.783c.044.4.207.912.427 1.187.011.014.192.246.525.435.307.173.688.312 1.049.312.362 0 .715-.13 1.049-.313.37-.205.62-.436.62-.436.367-.382.574-.878.574-1.405a1.96 1.96 0 0 0-.61-1.418c-1.063-1.056-1.927-.925-2.24-.925.15-1.517.925-2.487 2.135-2.487.503 0 .95.169 1.247.322h.001a.123.123 0 0 1 .03.196c-.077.084-.17.18-.267.28a1.486 1.486 0 0 0-.09 2.097c.566.567 1.46.57 2.03 0a1.486 1.486 0 0 0 0-2.097c-.097-.097-.208-.178-.293-.28a.123.123 0 0 1 .03-.196 3.266 3.266 0 0 1 1.247-.322c1.21 0 1.985.97 2.135 2.487-.313 0-1.177-.131-2.24.925a1.96 1.96 0 0 0-.61 1.418c0 .527.207 1.023.574 1.405 0 0 .25.231.62.436.334.183.687.313 1.049.313.361 0 .742-.139 1.049-.312.333-.189.514-.42.525-.435.22-.275.383-.787.427-1.187a5.406 5.406 0 0 0-1.803-4.783 12.13 12.13 0 0 1-3.746-.165zm-1.859 3.828c.31 0 .561.251.561.561a.561.561 0 0 1-1.122 0c0-.31.251-.561.561-.561zm3.478 0c.31 0 .561.251.561.561a.561.561 0 0 1-1.122 0c0-.31.251-.561.561-.561z"/>
    <path d="M11 0C4.925 0 0 4.925 0 11s4.925 11 11 11 11-4.925 11-11S17.075 0 11 0zm0 1c5.523 0 10 4.477 10 10s-4.477 10-10 10S1 16.523 1 11 5.477 1 11 1z"/>
</svg>
