<svg xmlns="http://www.w3.org/2000/svg" viewBox="0 0 512 512">
  <path
    fill="#000"
    fill-rule="evenodd"
    d="M256 30c-56 24-131 83-157 153-18 48-28 118-14 182 16 72 63 133 139 181l32 20 32-20c76-48 123-109 139-181 14-64 4-134-14-182C387 113 312 54 256 30zm0 106c42 0 74 38 74 86 0 51-32 89-74 89s-74-38-74-89c0-48 32-86 74-86zm-88 214c-19 12-31 33-34 58-3 26 4 53 21 74 19 24 47 42 80 55 6 2 13 5 21 8 8-3 15-6 21-8 33-13 61-31 80-55 17-21 24-48 21-74-3-25-15-46-34-58-28 18-59 27-88 27s-60-9-88-27z"
    clip-rule="evenodd"
  />
</svg>
